<?xml version="1.0" standalone="no"?>
<!DOCTYPE svg PUBLIC "-//W3C//DTD SVG 20010904//EN"
 "http://www.w3.org/TR/2001/REC-SVG-20010904/DTD/svg10.dtd">
<svg version="1.0" xmlns="http://www.w3.org/2000/svg"
 width="1280.000000pt" height="847.000000pt" viewBox="0 0 1280.000000 847.000000"
 preserveAspectRatio="xMidYMid meet">
<g transform="translate(0.000000,847.000000) scale(0.100000,-0.100000)"
fill="currentColor" stroke="none">
<path d="M7535 7996 c-23 -18 -57 -20 -72 -5 -7 7 -23 5 -53 -7 -35 -14 -52
-16 -94 -7 -34 7 -56 7 -67 0 -11 -7 -26 -6 -49 2 -27 9 -36 8 -49 -3 -19 -17
-157 -14 -175 4 -16 16 -64 12 -74 -6 -8 -14 -14 -15 -42 -6 -21 8 -38 8 -50
2 -9 -5 -20 -6 -24 -3 -3 4 -17 1 -30 -6 -18 -10 -29 -10 -45 -2 -15 9 -37 8
-83 0 -35 -7 -90 -13 -123 -14 -33 -1 -69 -7 -80 -12 -11 -6 -42 -14 -70 -17
-27 -4 -88 -20 -135 -36 -74 -24 -165 -43 -222 -45 -9 0 -20 -3 -24 -7 -4 -5
-18 -8 -31 -8 -13 0 -31 -4 -41 -9 -9 -5 -44 -16 -77 -26 -33 -9 -72 -23 -87
-31 -14 -8 -35 -14 -46 -14 -10 0 -32 -10 -48 -22 -25 -21 -75 -37 -169 -55
-16 -3 -40 -14 -51 -25 -12 -11 -30 -19 -40 -18 -37 5 -87 -13 -91 -32 -4 -14
-15 -18 -50 -18 -24 0 -56 -6 -71 -14 -15 -8 -46 -18 -67 -21 -22 -4 -44 -11
-50 -15 -24 -17 -108 -42 -125 -37 -10 3 -28 -1 -38 -9 -22 -15 -118 -32 -225
-40 -37 -2 -78 -9 -92 -14 -14 -5 -54 -12 -90 -16 -36 -4 -70 -13 -76 -20 -6
-8 -26 -14 -43 -14 -20 0 -36 -7 -44 -20 -7 -11 -21 -20 -32 -20 -10 0 -24 -8
-29 -17 -28 -49 -41 -56 -98 -60 -32 -2 -86 -15 -120 -29 -34 -13 -66 -24 -71
-24 -5 0 -23 -7 -38 -15 -16 -8 -40 -15 -54 -15 -48 -1 -132 -26 -144 -43 -17
-23 -78 -47 -239 -95 -164 -49 -250 -67 -418 -86 -257 -30 -403 -86 -662 -256
-66 -43 -92 -53 -160 -65 -45 -8 -120 -26 -167 -40 -47 -14 -116 -33 -155 -41
-38 -8 -90 -28 -115 -43 -25 -16 -65 -35 -90 -41 -25 -7 -60 -23 -78 -36 -17
-14 -47 -30 -65 -36 -29 -10 -73 -36 -177 -104 -141 -93 -293 -325 -325 -498
-4 -19 -13 -40 -21 -47 -8 -6 -14 -27 -14 -46 0 -25 -11 -50 -37 -86 -25 -33
-32 -49 -20 -44 18 7 24 -8 7 -18 -5 -3 -15 -16 -22 -28 -10 -19 -9 -21 4 -9
28 22 31 -4 9 -68 -12 -33 -21 -67 -21 -76 0 -27 19 -5 31 36 7 22 20 47 31
56 17 16 18 16 18 -5 0 -13 -13 -52 -30 -88 -33 -72 -41 -125 -15 -103 9 7 18
11 20 8 7 -7 8 -177 1 -234 l-6 -49 17 33 c9 17 19 32 22 32 13 0 10 -111 -4
-144 -8 -19 -15 -43 -15 -53 0 -15 3 -14 16 5 24 35 37 27 30 -17 -3 -22 -1
-50 5 -63 8 -19 6 -35 -10 -76 -12 -29 -21 -60 -21 -68 0 -25 18 -6 25 26 4
16 11 33 17 36 13 8 28 -14 28 -41 0 -20 -62 -129 -95 -165 -10 -11 -13 -20
-7 -20 6 0 26 16 43 35 18 19 36 35 41 35 12 0 0 -59 -18 -87 -8 -12 -14 -34
-14 -48 0 -14 -10 -45 -22 -68 -12 -23 -28 -55 -36 -72 l-13 -29 27 24 c14 14
34 41 44 60 23 45 55 74 74 67 9 -4 17 2 21 14 4 11 17 25 28 30 12 6 30 24
40 42 24 41 47 225 50 387 l1 125 -48 98 c-41 83 -50 111 -57 180 -32 340 28
619 167 767 43 46 165 120 198 120 24 0 19 -28 -13 -79 -35 -55 -114 -247
-142 -346 -11 -38 -25 -132 -31 -207 -12 -133 -11 -143 15 -290 19 -103 47
-210 87 -328 62 -186 97 -265 210 -480 79 -151 140 -343 140 -442 0 -98 -36
-214 -98 -313 -85 -137 -213 -285 -309 -356 -46 -35 -55 -46 -73 -107 -12 -37
-25 -108 -30 -158 -5 -51 -23 -134 -40 -188 -40 -125 -60 -230 -60 -319 0 -40
-16 -164 -35 -275 -28 -164 -41 -215 -67 -265 -23 -47 -33 -83 -39 -147 -5
-47 -18 -110 -28 -140 -11 -30 -27 -81 -36 -112 -8 -31 -20 -60 -25 -63 -17
-10 -86 -118 -98 -152 -6 -17 -8 -41 -5 -52 4 -18 13 -21 55 -21 60 0 83 -11
103 -50 22 -42 19 -154 -5 -225 -35 -101 -27 -123 48 -132 l52 -6 0 -51 c0
-65 24 -105 83 -139 76 -45 144 -57 324 -57 162 0 163 0 179 25 9 13 26 27 37
31 27 8 37 22 37 52 0 25 -43 94 -79 127 -12 10 -43 53 -68 95 -56 91 -96 136
-145 161 -20 10 -39 27 -42 36 -22 70 -36 181 -36 279 0 98 7 147 50 352 50
238 88 354 188 575 82 179 255 409 382 508 83 64 117 97 177 172 39 48 58 66
66 58 7 -7 7 -52 -1 -148 -8 -106 -19 -167 -47 -263 -44 -151 -52 -208 -35
-241 8 -13 48 -71 89 -129 42 -58 141 -217 221 -355 79 -137 185 -320 235
-405 104 -175 256 -458 273 -508 8 -24 9 -62 2 -133 -13 -137 -12 -138 110
-159 80 -14 107 -31 117 -73 7 -27 19 -38 88 -72 l79 -40 170 -3 c190 -4 269
3 290 23 7 8 17 30 20 50 9 45 -8 82 -91 202 -63 90 -81 109 -163 168 -46 33
-202 199 -292 310 -87 108 -263 392 -313 506 -83 187 -89 226 -90 529 0 227 2
269 16 290 9 14 19 48 22 75 3 28 10 79 16 115 5 36 15 139 21 230 17 254 30
325 122 630 43 141 66 200 80 200 43 0 319 -184 588 -391 190 -148 279 -207
370 -249 191 -88 234 -115 258 -157 12 -22 26 -72 31 -109 9 -69 56 -204 71
-204 4 0 13 23 20 50 9 39 15 48 25 40 16 -13 28 2 44 51 6 19 25 45 41 58 16
12 37 32 45 45 21 32 4 77 -43 112 -20 16 -40 33 -44 38 -15 21 -7 47 16 56
13 5 27 14 31 19 8 14 48 14 62 0 9 -9 19 -6 41 10 17 12 37 18 45 15 9 -3 25
0 38 6 12 7 54 14 93 16 72 4 107 13 159 41 17 9 40 13 57 10 16 -4 35 0 46 8
11 8 29 11 41 9 13 -4 29 2 41 14 12 12 46 24 88 32 58 10 81 10 146 -4 61
-13 83 -13 105 -4 15 6 55 12 88 14 177 9 207 5 186 -20 -16 -20 -4 -25 37
-15 61 14 94 10 146 -16 27 -14 55 -25 63 -25 7 0 13 -5 13 -11 0 -7 9 -9 22
-6 11 3 34 -1 51 -9 25 -13 28 -20 23 -45 l-5 -29 81 3 c74 2 82 1 95 -20 9
-13 24 -23 35 -23 10 0 39 -11 64 -25 25 -14 58 -25 74 -25 17 0 31 -3 31 -7
1 -5 3 -18 4 -29 1 -12 5 -26 9 -33 4 -6 -2 -30 -12 -55 -11 -24 -18 -55 -15
-68 6 -32 -13 -70 -66 -130 -23 -25 -41 -49 -41 -52 0 -3 14 -3 30 1 58 11 30
-32 -60 -92 -38 -26 -70 -51 -70 -55 0 -5 -19 -28 -42 -51 l-43 -41 33 7 c40
8 41 -4 5 -65 -42 -72 -63 -239 -34 -274 9 -11 9 -22 -3 -50 -9 -21 -11 -38
-5 -41 5 -4 9 -17 9 -30 0 -16 7 -25 24 -29 21 -5 25 -13 28 -49 l3 -42 24 38
c31 50 48 36 32 -27 -22 -87 -16 -121 30 -167 25 -25 38 -46 35 -57 -2 -9 -8
-36 -11 -59 -6 -39 -5 -43 14 -43 11 0 22 -4 26 -10 3 -5 12 -7 20 -3 11 4 15
-2 15 -20 0 -38 12 -87 21 -87 4 0 9 17 11 37 2 27 8 39 21 41 11 2 17 -3 17
-16 0 -12 9 -22 21 -25 16 -4 19 -11 14 -27 -7 -21 -6 -21 18 -5 14 9 42 41
63 71 20 30 38 54 40 54 1 0 16 -13 33 -29 19 -18 31 -39 31 -55 0 -18 4 -24
14 -20 12 4 14 -14 11 -108 -3 -126 -9 -166 -35 -253 -72 -243 -72 -249 1
-251 21 0 45 -6 51 -12 13 -13 15 -66 3 -129 -9 -52 7 -81 67 -119 88 -56 170
-76 339 -81 147 -6 157 -5 175 14 10 11 29 26 42 32 15 8 22 21 22 39 0 37
-54 183 -91 248 -16 28 -29 57 -29 64 0 7 -22 62 -49 124 -45 101 -51 123 -65
246 -21 179 -12 266 43 425 67 194 125 335 138 335 6 0 20 -23 31 -51 12 -34
21 -46 25 -36 9 23 72 1 86 -29 6 -13 14 -24 19 -24 4 0 16 -16 26 -35 11 -19
26 -35 34 -35 7 0 16 -9 19 -20 3 -11 11 -20 18 -20 8 0 16 -8 19 -18 7 -21
51 -56 83 -66 14 -4 23 -2 27 9 9 24 26 17 38 -15 7 -22 15 -29 27 -25 12 4
21 -2 28 -17 10 -23 10 -23 26 8 19 37 31 43 75 37 28 -5 32 -9 32 -37 1 -36
19 -65 38 -59 7 3 12 -5 12 -21 0 -41 17 -39 34 4 9 22 22 40 29 40 15 0 37
-41 37 -70 0 -11 11 -30 25 -44 28 -28 27 -32 30 62 1 43 21 70 39 52 5 -5 19
-4 34 1 14 5 31 8 38 5 6 -2 14 4 17 15 6 24 36 25 43 2 3 -10 10 -26 15 -35
15 -28 11 -55 -16 -108 -14 -27 -25 -60 -25 -72 0 -13 -7 -34 -16 -46 -22 -31
-15 -35 38 -21 89 24 101 -12 38 -122 -22 -39 -40 -77 -40 -84 0 -17 38 -45
62 -45 23 0 48 -38 48 -75 0 -16 -9 -54 -20 -83 l-20 -52 37 -41 c57 -63 132
-95 313 -133 41 -8 101 -18 132 -22 52 -6 59 -4 82 19 14 14 37 29 53 34 39
13 40 38 3 140 -44 120 -69 236 -70 310 0 34 -11 109 -25 167 -14 58 -25 129
-25 158 0 102 -8 120 -97 234 -110 140 -112 143 -129 206 -30 108 -35 160 -18
185 8 13 12 28 8 34 -3 5 -7 54 -8 107 -1 71 -6 106 -20 131 -16 30 -16 41 -6
97 7 35 10 70 7 79 -4 8 -2 17 3 20 6 4 10 19 10 34 0 15 11 59 25 97 14 38
25 77 25 86 0 33 43 119 57 114 9 -4 13 3 13 20 0 17 8 27 25 34 14 5 25 16
25 23 0 17 32 47 50 47 9 0 11 -10 7 -36 -4 -25 -2 -34 6 -31 7 2 13 13 15 24
2 12 12 29 23 39 20 18 21 18 41 -9 22 -30 40 -34 58 -12 7 9 20 13 30 10 9
-3 24 3 35 15 28 31 71 50 84 37 7 -7 16 -6 29 6 20 18 92 24 92 7 0 -22 26
-7 77 45 30 30 58 55 64 55 6 0 7 -14 3 -35 -7 -39 0 -43 28 -18 17 15 19 15
31 -1 11 -16 14 -14 30 19 21 44 40 37 32 -13 l-5 -37 15 32 c24 52 77 67 58
16 -6 -17 -6 -17 14 0 25 22 33 13 33 -36 l0 -39 32 31 c17 17 35 31 39 31 14
0 20 -34 13 -78 -6 -42 -6 -43 14 -31 18 11 24 11 39 -3 10 -8 24 -13 31 -11
8 3 12 -8 12 -35 0 -23 6 -45 15 -52 17 -14 17 -15 33 23 15 34 42 36 42 2 0
-14 5 -25 11 -25 7 0 8 -16 3 -45 -7 -47 0 -56 22 -27 10 14 15 15 25 4 10 -9
11 -19 1 -45 -7 -18 -12 -48 -12 -66 0 -28 2 -32 15 -21 26 21 33 2 16 -45
-15 -41 -14 -45 1 -57 10 -7 24 -29 32 -48 8 -20 25 -42 38 -49 15 -8 29 -29
37 -57 7 -24 22 -49 32 -55 10 -5 27 -26 38 -47 10 -20 29 -46 41 -57 12 -11
29 -33 37 -48 13 -26 16 -27 27 -12 18 24 47 7 86 -50 33 -48 45 -57 35 -26
-10 32 16 37 40 7 l21 -26 13 49 c7 27 23 61 36 75 13 14 26 35 30 46 10 32
33 24 41 -15 4 -25 11 -35 25 -35 13 0 19 7 19 23 0 41 12 67 31 67 10 0 24
10 30 23 7 12 25 36 42 52 50 50 67 102 73 222 4 81 12 123 30 169 30 76 39
165 26 264 -11 84 -5 100 37 100 51 0 127 29 181 70 29 22 61 40 70 40 10 0
28 8 41 19 13 10 40 22 59 26 62 13 126 53 167 102 70 84 70 84 58 283 -3 58
-11 118 -17 134 -10 25 -9 31 10 47 27 21 38 69 23 96 -7 14 -7 31 1 59 6 21
12 50 13 64 1 14 3 35 3 46 2 15 14 27 41 37 46 19 70 67 45 88 -10 9 -14 28
-12 63 3 44 6 51 28 56 29 7 42 50 15 50 -24 0 -75 32 -75 47 0 6 -7 16 -15
21 -25 13 -4 90 33 122 29 24 33 50 8 50 -11 0 -72 26 -84 36 -7 5 19 44 29
44 14 0 79 67 79 82 0 6 9 21 20 33 24 26 32 145 9 145 -10 0 -48 39 -49 50 0
3 17 24 38 48 30 34 37 49 34 72 -3 24 0 31 19 39 13 4 31 6 39 3 11 -4 10 0
-4 16 -10 12 -27 24 -37 27 -26 9 -24 53 3 82 25 27 43 139 23 147 -18 7 -5
85 16 97 27 14 24 32 -5 25 -16 -4 -32 1 -47 14 -21 18 -22 21 -8 32 28 23 29
55 2 67 -18 8 -24 17 -20 31 9 33 -14 90 -35 90 -11 0 -26 13 -36 30 -10 17
-28 33 -42 36 -51 10 -95 41 -100 70 -3 18 -14 33 -28 39 -15 6 -21 16 -19 27
3 11 -7 25 -29 40 -28 19 -34 29 -32 55 2 38 -15 61 -56 71 l-31 8 -6 96 c-10
150 -39 243 -98 318 -27 34 -33 23 -21 -41 11 -56 5 -135 -12 -156 -7 -8 -20
-7 -51 7 -23 10 -60 22 -82 26 -21 4 -61 20 -88 36 -27 16 -70 31 -95 35 -26
3 -54 12 -63 19 -10 9 -45 14 -95 16 -43 1 -83 4 -89 7 -5 2 -46 4 -92 3 -67
-1 -86 2 -100 16 -27 27 -70 42 -102 36 -16 -3 -60 -30 -97 -58 -60 -46 -75
-52 -114 -52 -31 1 -46 5 -48 16 -3 19 -99 21 -107 2 -2 -7 -19 -11 -37 -10
-18 1 -48 -2 -65 -6 -29 -7 -33 -5 -33 13 0 15 -11 26 -41 37 -33 14 -40 21
-35 38 3 13 -6 37 -24 65 -17 24 -30 51 -30 59 0 8 -15 34 -34 56 -38 47 -69
113 -62 133 3 7 0 15 -5 19 -6 3 -19 25 -30 48 -32 67 -50 96 -58 96 -16 0
-93 109 -89 127 3 12 -6 23 -27 33 -16 8 -31 24 -33 35 -2 11 -20 31 -40 45
-46 30 -141 80 -155 80 -8 0 -241 109 -299 141 -10 5 -23 6 -31 3 -8 -3 -21 5
-30 19 -12 19 -22 22 -50 19 -25 -3 -40 1 -54 15 -13 13 -36 20 -68 22 -27 1
-54 6 -60 10 -5 5 -30 13 -55 19 -25 6 -63 16 -85 22 -22 6 -53 13 -70 15 -76
8 -155 24 -175 35 -15 8 -30 8 -49 2 -17 -6 -34 -6 -45 0 -9 5 -31 10 -49 10
-18 0 -36 4 -42 8 -17 12 -258 10 -283 -2 -19 -10 -29 -9 -55 5 -28 14 -98 22
-147 16 -8 -1 -22 2 -30 5 -9 4 -24 0 -35 -8z m-1150 -5842 c0 -10 -8 -20 -17
-22 -18 -3 -26 27 -11 42 12 11 28 0 28 -20z m213 -416 c-4 -29 -38 -38 -38
-10 0 22 8 32 27 32 9 0 13 -8 11 -22z"/>
<path d="M910 4185 c-16 -9 -19 -14 -9 -15 8 0 24 7 35 15 24 18 7 19 -26 0z"/>
<path d="M9767 3293 c-4 -3 -7 -11 -7 -17 0 -6 5 -5 12 2 6 6 9 14 7 17 -3 3
-9 2 -12 -2z"/>
</g>
</svg>
